<?xml version="1.0" encoding="UTF-8" standalone="no"?>
<!DOCTYPE svg  PUBLIC '-//W3C//DTD SVG 1.1//EN'  'http://www.w3.org/Graphics/SVG/1.1/DTD/svg11.dtd'>
<svg xmlns:rdf="http://www.w3.org/1999/02/22-rdf-syntax-ns#" xmlns="http://www.w3.org/2000/svg" height="128" width="128" xmlns:cc="http://creativecommons.org/ns#" xmlns:xlink="http://www.w3.org/1999/xlink" xmlns:dc="http://purl.org/dc/elements/1.1/">
 <defs id="defs14664">
  <linearGradient id="linearGradient3219">
   <stop id="stop3221" stop-color="#0e7309" offset="0"/>
   <stop id="stop3223" stop-color="#70d13e" offset="1"/>
  </linearGradient>
  <linearGradient id="linearGradient3325" y2="82.333" gradientUnits="userSpaceOnUse" x2="41.946" y1="46.665" x1="41.946">
   <stop id="stop3321" stop-color="#7d491f" offset="0"/>
   <stop id="stop3323" stop-color="#926600" offset="1"/>
  </linearGradient>
  <radialGradient id="radialGradient3333" gradientUnits="userSpaceOnUse" cy="59.729" cx="53.602" gradientTransform="matrix(0 1.6558 -1.6392 0 152.15 -32.924)" r="17.834">
   <stop id="stop3329" stop-color="#fff" offset="0"/>
   <stop id="stop3335" stop-color="#fdd99a" offset=".5"/>
   <stop id="stop3331" stop-color="#c39539" offset="1"/>
  </radialGradient>
  <filter id="filter3385">
   <feGaussianBlur id="feGaussianBlur3387" stdDeviation="0.14607691"/>
  </filter>
  <linearGradient id="linearGradient3203" y2="66.311" gradientUnits="userSpaceOnUse" x2="83.281" y1="123.1" x1="83.281">
   <stop id="stop3199" stop-color="#002f32" offset="0"/>
   <stop id="stop3201" stop-color="#045b04" offset="1"/>
  </linearGradient>
  <radialGradient id="radialGradient3211" gradientUnits="userSpaceOnUse" cy="670.93" cx="491.52" gradientTransform="matrix(0 2.0238 -1.9581 0 1805.2 -312.49)" r="36.427">
   <stop id="stop3207" stop-color="#2c8300" offset="0"/>
   <stop id="stop3215" stop-color="#3db800" offset=".25"/>
   <stop id="stop3213" stop-color="#fff" offset=".5"/>
   <stop id="stop3209" stop-color="#69cf35" offset="1"/>
  </radialGradient>
  <linearGradient id="linearGradient3240" y2="745.3" xlink:href="#linearGradient3219" gradientUnits="userSpaceOnUse" x2="517.02" gradientTransform="matrix(-1 0 0 1 983.33 0)" y1="705.48" x1="517.02"/>
  <linearGradient id="linearGradient3243" y2="745.3" xlink:href="#linearGradient3219" gradientUnits="userSpaceOnUse" x2="517.02" gradientTransform="translate(-.12005)" y1="705.48" x1="517.02"/>
  <radialGradient id="radialGradient3267" gradientUnits="userSpaceOnUse" cy="709.66" cx="479.68" gradientTransform="matrix(1.234 -.15160 .19080 1.553 -247.63 -320.15)" r="5.0059">
   <stop id="stop3263" stop-color="#fff" stop-opacity="0" offset="0"/>
   <stop id="stop3269" stop-color="#fff" stop-opacity="0" offset=".5"/>
   <stop id="stop3265" stop-color="#fff" offset="1"/>
  </radialGradient>
  <linearGradient id="linearGradient2655" y2="61.798" gradientUnits="userSpaceOnUse" x2="58.959" gradientTransform="translate(-143.46 4.0642)" y1="61.798" x1="28.429">
   <stop id="stop3341" stop-color="#e8e8e8" offset="0"/>
   <stop id="stop3347" stop-color="#fff" offset=".5"/>
   <stop id="stop3343" stop-color="#e8e8e8" offset="1"/>
  </linearGradient>
 </defs>
 <g id="user" transform="matrix(1.1662 0 0 1.1662 -509.63 -764.22)">
  <path id="path3281" opacity=".5" d="m492.36 660.38c-14.72 0-26.7 11.98-26.7 26.7s11.98 26.69 26.7 26.69c14.71 0 26.69-11.97 26.69-26.69s-11.98-26.7-26.69-26.7z"/>
  <path id="path3283" opacity=".5" d="m492.27 697.65c-21.63 0-39.19 17.35-39.19 38.75v6.13c0 6.05 6.28 18.75 28.91 18.75h20.53c22.63 0 28.94-12.08 28.94-18.75v-6.13c0-21.4-17.55-38.75-39.19-38.75z"/>
  <path id="path2214" d="m44.094 59.469c-21.635 0-39.188 17.347-39.188 38.75l0.0002 6.121c0 6.06 6.2758 18.75 28.906 18.75h20.532c22.63 0 28.937-12.08 28.937-18.75v-6.121c0-21.403-17.553-38.75-39.187-38.75z" transform="translate(447.43 636.93)" fill="url(#linearGradient3203)"/>
  <path id="path3193" fill="url(#radialGradient3211)" d="m491.52 698.56c-20.11 0-36.42 15.91-36.42 35.54v5.61c0 5.55 5.83 17.2 26.87 17.2h19.08c21.04 0 26.9-11.08 26.9-17.2v-5.61c0-19.63-16.32-35.54-36.43-35.54z"/>
  <path id="path3217" d="m509.01 705.87c8.46 9.07 14.91 24.1 16.8 38.66" fill-opacity="0" stroke="url(#linearGradient3243)" stroke-width="1.5"/>
  <path id="path3227" d="m474.2 705.87c-8.47 9.07-14.92 24.1-16.81 38.66" fill-opacity="0" stroke="url(#linearGradient3240)" stroke-width="1.5"/>
  <path id="path3249" d="m484.83 710.08c-2.3 1.97-4.96 3.53-3.72 8.28-5.66-1.15-9.95-8.89-6.36-14.41l10.08 6.13z" fill-rule="evenodd" stroke="#52aa5d" stroke-width="1px" fill="#c5ffbd"/>
  <path id="path3245" d="m-36.972 84.91l-5.41-9.37h10.82l-5.41 9.37z" transform="matrix(1.1689 0 0 1.1689 534.82 623.45)" stroke="#800000" stroke-linecap="square" stroke-width=".85553" fill="#ff2600"/>
  <path id="path3247" d="m497.97 710.08c2.78 1.49 6.04 3.41 4.8 8.16 4.94-2.11 8.87-8.77 5.28-14.29l-10.08 6.13z" fill-rule="evenodd" stroke="#5eaa5e" stroke-width="1px" fill="#a0ff74"/>
  <path id="path3251" d="m475 704.66l8.97 5.46c-0.97 0.88-1.97 1.65-2.75 2.79-0.75 1.15-0.98 2.74-0.66 4.71-2.37-0.72-4.49-2.64-5.65-5.06-1.21-2.5-1.35-5.4 0.06-7.9z" fill-rule="evenodd" fill="url(#radialGradient3267)"/>
  <path id="path2309" d="m77 64.499c-0.052 9.501-7.738 17.17-17.22 17.17s-17.168-7.688-17.166-17.17c-0.002-9.482 7.684-17.17 17.166-17.17s17.168 7.688 17.165 17.17z" transform="matrix(1.496 0 0 1.496 402.17 589.33)" stroke="url(#linearGradient3325)" stroke-linecap="square" stroke-width="1.3369" fill="url(#radialGradient3333)"/>
 </g>
 <g id="g2650" fill-rule="evenodd" transform="translate(163.37 -12.23)">
  <path id="path3337" d="m-114.53 60h29.53c0 8.806-7.386 11.684-14.769 11.684-7.381 0-14.761-2.987-14.761-11.643z" stroke="#5e292c" stroke-width="1px" fill="url(#linearGradient2655)"/>
  <path id="path3360" d="m29.5 56.469c0.143 3.882 1.778 6.481 4.312 8.156 2.651 1.751 6.252 2.5 9.876 2.5 3.626 0 7.226-0.732 9.874-2.469 2.535-1.662 4.202-4.253 4.344-8.187h-28.406zm0.656 0.469h27.094c-0.136 3.579-1.706 5.956-4.125 7.468-2.528 1.58-5.977 2.25-9.437 2.25-3.459 0-6.909-0.688-9.438-2.281-2.419-1.524-3.957-3.905-4.094-7.437z" transform="matrix(1.0211 0 0 1.0338 -144.09 1.7957)" filter="url(#filter3385)" fill="#fff"/>
  <path id="path3375" d="m-115 59.533l-0.03 0.5c0 4.47 1.96 7.593 4.85 9.5s6.65 2.656 10.405 2.656c3.756 0 7.549-0.731 10.437-2.625s4.844-5.008 4.844-9.531v-0.5h-0.5-29.536-0.5zm1.04 1h28.403c-0.142 3.934-1.809 6.526-4.343 8.187-2.649 1.737-6.249 2.469-9.875 2.469-3.625 0-7.225-0.749-9.875-2.5-2.54-1.674-4.17-4.274-4.31-8.156z" fill="#5e292c"/>
 </g>
</svg>
